<?xml version="1.0" encoding="utf-8"?>
<!-- Generator: Adobe Illustrator 25.1.0, SVG Export Plug-In . SVG Version: 6.00 Build 0)  -->
<svg version="1.1" id="Layer_1" xmlns="http://www.w3.org/2000/svg" xmlns:xlink="http://www.w3.org/1999/xlink" x="0px" y="0px"
	 viewBox="0 0 512 512" style="enable-background:new 0 0 512 512;" xml:space="preserve">
<style type="text/css">
	.st0{fill:#AA96DA;}
</style>
<g>
	<path class="st0" d="M464.9,64.3H47.1C21.1,64.3,0,85.4,0,111.4c0,26,21.1,47.1,47.1,47.1h417.8c26,0,47.1-21.1,47.1-47.1
		C512,85.4,490.9,64.3,464.9,64.3z"/>
	<path class="st0" d="M464.9,208.9H47.1C21.1,208.9,0,230,0,256c0,26,21.1,47.1,47.1,47.1h417.8c26,0,47.1-21.1,47.1-47.1
		C512,230,490.9,208.9,464.9,208.9L464.9,208.9z"/>
	<path class="st0" d="M464.9,353.5H47.1c-26,0-47.1,21.1-47.1,47.1c0,26,21.1,47.1,47.1,47.1h417.8c26,0,47.1-21.1,47.1-47.1
		C512,374.6,490.9,353.5,464.9,353.5z"/>
</g>
</svg>
