<?xml version="1.0" encoding="utf-8"?>
<!-- Generator: Adobe Illustrator 25.1.0, SVG Export Plug-In . SVG Version: 6.00 Build 0)  -->
<svg version="1.1" id="Capa_1" xmlns="http://www.w3.org/2000/svg" xmlns:xlink="http://www.w3.org/1999/xlink" x="0px" y="0px"
	 viewBox="0 0 512 512" style="enable-background:new 0 0 512 512;" xml:space="preserve">
<style type="text/css">
	.st0{fill:#AA96DA;}
</style>
<g>
	<g>
		<path class="st0" d="M494.7,100.8L339.6,256l155.1,155.1c23.1,23.1,23.1,60.5,0,83.6C483.2,506.2,468,512,452.9,512
			c-15.1,0-30.3-5.8-41.8-17.3L256,339.5L100.8,494.7C89.3,506.2,74.2,512,59.1,512c-15.1,0-30.2-5.8-41.8-17.3
			c-23.1-23.1-23.1-60.5,0-83.6L172.4,256L17.3,100.8c-23.1-23.1-23.1-60.5,0-83.6c23.1-23.1,60.5-23.1,83.5,0L256,172.4L411.1,17.3
			c23.1-23.1,60.5-23.1,83.5,0C517.8,40.4,517.8,77.8,494.7,100.8z"/>
	</g>
</g>
</svg>
